<svg xmlns="http://www.w3.org/2000/svg" xmlns:xlink="http://www.w3.org/1999/xlink" width="110.25" height="124" viewBox="0 0 110.25 124"><defs><style>.a{fill:#fff;}.b{filter:url(#a);}</style><filter id="a" x="0" y="0" width="110.25" height="124" filterUnits="userSpaceOnUse"><feOffset dy="13" input="SourceAlpha"/><feGaussianBlur stdDeviation="11.5" result="b"/><feFlood flood-color="#1776c2" flood-opacity="0.322"/><feComposite operator="in" in2="b"/><feComposite in="SourceGraphic"/></filter></defs><g transform="translate(-51.875 -348)"><g class="b" transform="matrix(1, 0, 0, 1, 51.88, 348)"><path class="a" d="M18.505,53.89C2.9,31.263,0,28.941,0,20.625a20.625,20.625,0,0,1,41.25,0c0,8.316-2.9,10.638-18.505,33.265a2.579,2.579,0,0,1-4.239,0Z" transform="translate(34.5 21.5)"/></g><path d="M10.838,17.511l3.552-3.552L5.579,5.16a5.03,5.03,0,0,0,0,7.1Zm8.51-2.272c1.92.891,4.619.264,6.615-1.732,2.4-2.4,2.862-5.837,1.017-7.682S21.707,4.445,19.3,6.842c-2,2-2.623,4.694-1.732,6.615L5.315,25.707l1.77,1.77,8.648-8.623,8.636,8.636,1.77-1.77L17.5,17.084Z" transform="translate(91.141 375.279)"/></g></svg>